<svg xmlns="http://www.w3.org/2000/svg" xmlns:xlink="http://www.w3.org/1999/xlink" width="1280" height="1440"><g transform="translate(0 0)"><path d="M0 0h1280v1440H0z" fill="#fff"/><path d="M90 87c0-2.76 2.24-5 5-5h104.52c2.77 0 5 2.24 5 5v82c0 2.76-2.23 5-5 5H95c-2.76 0-5-2.24-5-5z" stroke="#f78c20" stroke-width="2" fill="#fff"/><path d="M90 82l114.52 92m0-92L90 174" stroke="#f78c20" stroke-width="2" fill="none"/><use xlink:href="#a" transform="matrix(1,0,0,1,101.45249169435216,128) translate(46 23.9)"/><path d="M241.47 96c0-2.76 2.24-5 5-5h441.28c2.76 0 5 2.24 5 5v64c0 2.76-2.24 5-5 5H246.47c-2.76 0-5-2.24-5-5z" fill="none"/><use xlink:href="#b" transform="matrix(1,0,0,1,246.46843853820607,96) translate(0 47.14666666666667)"/><use xlink:href="#c" transform="matrix(1,0,0,1,246.46843853820607,96) translate(242.24 47.14666666666667)"/><path d="M928.3 224c0-2.76 2.25-5 5-5h248.62c2.76 0 5 2.24 5 5v32c0 2.76-2.24 5-5 5h-248.6c-2.77 0-5-2.24-5-5z" stroke="#f78c20" stroke-width="2" fill="#fff"/><path d="M945.1 235.8l16.8 16.8" stroke="#f78c20" stroke-width="4" fill="none"/><path d="M953.5 235.8c0 4.64-3.75 8.4-8.4 8.4-4.63 0-8.4-3.76-8.4-8.4 0-4.64 3.77-8.4 8.4-8.4 4.65 0 8.4 3.76 8.4 8.4z" stroke="#f78c20" stroke-width="2" fill="#fff"/><use xlink:href="#d" transform="matrix(1,0,0,1,991.9727574750831,223.2) translate(0 22.112000000000002)"/><path d="M80 219c0-2.76 2.24-5 5-5h787.98c2.76 0 5 2.24 5 5v42c0 2.76-2.24 5-5 5H85c-2.76 0-5-2.24-5-5z" fill="none"/><path d="M239.86 214v52M397.63 214v52M549.4 214v52M721.24 214v52" stroke="#f78c20" stroke-width="2" fill="none"/><use xlink:href="#e" transform="matrix(1,0,0,1,80,219) translate(14 26.112000000000002)"/><use xlink:href="#f" transform="matrix(1,0,0,1,239.85881328903656,219) translate(14 26.112000000000002)"/><use xlink:href="#g" transform="matrix(1,0,0,1,397.6296265780731,219) translate(14 26.112000000000002)"/><use xlink:href="#h" transform="matrix(1,0,0,1,549.3884398671097,219) translate(14 26.112000000000002)"/><use xlink:href="#i" transform="matrix(1,0,0,1,721.2352531561462,219) translate(14 26.112000000000002)"/><path d="M89.7 319c0-2.76 2.23-5 5-5h211.66c2.76 0 5 2.24 5 5v334c0 2.76-2.24 5-5 5H94.7c-2.77 0-5-2.24-5-5z" stroke="#f78c20" stroke-width="2" fill="none"/><path d="M89.7 319c0-2.76 2.23-5 5-5h211.66c2.76 0 5 2.24 5 5v174c0 2.76-2.24 5-5 5H94.7c-2.77 0-5-2.24-5-5zM89.7 354h221.66M89.7 538h221.66M89.7 578h221.66M89.7 618h221.66" stroke="#f78c20" stroke-width="2" fill="none"/><use xlink:href="#j" transform="matrix(1,0,0,1,94.69435215946844,319) translate(0 14.112)"/><use xlink:href="#k" transform="matrix(1,0,0,1,94.69435215946844,319) translate(65.03399999999999 14.112)"/><use xlink:href="#l" transform="matrix(1,0,0,1,99.69435215946844,364) translate(0 14.112)"/><use xlink:href="#m" transform="matrix(1,0,0,1,99.69435215946844,364) translate(11.303999999999998 14.112)"/><use xlink:href="#n" transform="matrix(1,0,0,1,99.69435215946844,364) translate(72.324 14.112)"/><use xlink:href="#o" transform="matrix(1,0,0,1,99.69435215946844,364) translate(0 32.112)"/><use xlink:href="#m" transform="matrix(1,0,0,1,99.69435215946844,364) translate(11.303999999999998 32.112)"/><use xlink:href="#p" transform="matrix(1,0,0,1,99.69435215946844,364) translate(72.324 32.112)"/><use xlink:href="#o" transform="matrix(1,0,0,1,99.69435215946844,364) translate(0 50.112)"/><use xlink:href="#m" transform="matrix(1,0,0,1,99.69435215946844,364) translate(11.303999999999998 50.112)"/><use xlink:href="#q" transform="matrix(1,0,0,1,99.69435215946844,364) translate(72.324 50.112)"/><use xlink:href="#o" transform="matrix(1,0,0,1,99.69435215946844,364) translate(0 68.112)"/><use xlink:href="#m" transform="matrix(1,0,0,1,99.69435215946844,364) translate(11.303999999999998 68.112)"/><use xlink:href="#r" transform="matrix(1,0,0,1,99.69435215946844,364) translate(72.324 68.112)"/><use xlink:href="#o" transform="matrix(1,0,0,1,99.69435215946844,364) translate(0 86.112)"/><use xlink:href="#m" transform="matrix(1,0,0,1,99.69435215946844,364) translate(11.303999999999998 86.112)"/><use xlink:href="#s" transform="matrix(1,0,0,1,99.69435215946844,364) translate(72.324 86.112)"/><use xlink:href="#o" transform="matrix(1,0,0,1,99.69435215946844,364) translate(0 104.112)"/><use xlink:href="#m" transform="matrix(1,0,0,1,99.69435215946844,364) translate(11.303999999999998 104.112)"/><use xlink:href="#t" transform="matrix(1,0,0,1,99.69435215946844,364) translate(72.324 104.112)"/><use xlink:href="#j" transform="matrix(1,0,0,1,94.69435215946844,502.99999999999994) translate(0 14.112)"/><use xlink:href="#u" transform="matrix(1,0,0,1,94.69435215946844,502.99999999999994) translate(65.03399999999999 14.112)"/><use xlink:href="#j" transform="matrix(1,0,0,1,94.69435215946844,543) translate(0 14.112)"/><use xlink:href="#v" transform="matrix(1,0,0,1,94.69435215946844,543) translate(65.03399999999999 14.112)"/><use xlink:href="#j" transform="matrix(1,0,0,1,94.69435215946844,583) translate(0 20.112000000000002)"/><use xlink:href="#w" transform="matrix(1,0,0,1,94.69435215946844,583) translate(65.03399999999999 20.112000000000002)"/><use xlink:href="#j" transform="matrix(1,0,0,1,94.69435215946844,623) translate(0 20.112000000000002)"/><use xlink:href="#x" transform="matrix(1,0,0,1,94.69435215946844,623) translate(65.03399999999999 20.112000000000002)"/><path d="M363.08 319c0-2.76 2.23-5 5-5h534.9c2.77 0 5 2.24 5 5v334c0 2.76-2.23 5-5 5H368.1c-2.77 0-5-2.24-5-5z" stroke="#f78c20" stroke-width="2" fill="#fff"/><path d="M363.08 314l544.9 344m0-344L363.1 658" stroke="#f78c20" stroke-width="2" fill="none"/><use xlink:href="#a" transform="matrix(1,0,0,1,417.56810631229234,486) translate(218 74.4)"/><path d="M943.1 379c0-2.76 2.23-5 5-5H1193c2.76 0 5 2.24 5 5v150c0 2.76-2.24 5-5 5H948.1c-2.77 0-5-2.24-5-5z" fill="none"/><use xlink:href="#y" transform="matrix(1,0,0,1,948.0897009966776,379.00000000000006) translate(0 31.360000000000007)"/><use xlink:href="#z" transform="matrix(1,0,0,1,948.0897009966776,379.00000000000006) translate(0 71.36000000000001)"/><use xlink:href="#A" transform="matrix(1,0,0,1,948.0897009966776,379.00000000000006) translate(88.32000000000002 71.36000000000001)"/><path d="M363.08 711c0-2.76 2.23-5 5-5h244.9c2.77 0 5 2.24 5 5v230c0 2.76-2.23 5-5 5H368.1c-2.77 0-5-2.24-5-5z" stroke="#f78c20" stroke-width="2" fill="#fff"/><path d="M363.08 706l254.9 240m0-240L363.1 946" stroke="#f78c20" stroke-width="2" fill="none"/><use xlink:href="#a" transform="matrix(1,0,0,1,388.5674418604651,826.0000000000001) translate(102 53.4)"/><path d="M653.08 711c0-2.76 2.24-5 5-5h244.9c2.77 0 5 2.24 5 5v230c0 2.76-2.23 5-5 5H658.1c-2.76 0-5-2.24-5-5z" stroke="#f78c20" stroke-width="2" fill="#fff"/><path d="M653.08 706l254.9 240m0-240L653.1 946" stroke="#f78c20" stroke-width="2" fill="none"/><use xlink:href="#a" transform="matrix(1,0,0,1,678.5740863787375,826.0000000000001) translate(102 53.4)"/><path d="M943.1 711c0-2.76 2.23-5 5-5H1193c2.76 0 5 2.24 5 5v230c0 2.76-2.24 5-5 5H948.1c-2.77 0-5-2.24-5-5z" stroke="#f78c20" stroke-width="2" fill="#fff"/><path d="M943.1 706L1198 946m0-240L943.1 946" stroke="#f78c20" stroke-width="2" fill="none"/><use xlink:href="#a" transform="matrix(1,0,0,1,968.5807308970099,826.0000000000001) translate(102 53.4)"/><path d="M90 711c0-2.76 2.24-5 5-5h160c2.76 0 5 2.24 5 5v64c0 2.76-2.24 5-5 5H95c-2.76 0-5-2.24-5-5z" fill="none"/><g><use xlink:href="#B" transform="matrix(1,0,0,1,95.00000000000001,711) translate(0 20.90666666666667)"/><use xlink:href="#C" transform="matrix(1,0,0,1,95.00000000000001,711) translate(0 55.57333333333334)"/><use xlink:href="#D" transform="matrix(1,0,0,1,95.00000000000001,711) translate(71.12 55.57333333333334)"/></g><path d="M90 802c0-2.76 2.24-5 5-5h211c2.76 0 5 2.24 5 5v31c0 2.76-2.24 5-5 5H95c-2.76 0-5-2.24-5-5z" stroke="#f78c20" stroke-width="2" fill="#fff"/><g><use xlink:href="#E" transform="matrix(1,0,0,1,100,801.1) translate(0 21.612000000000002)"/></g><path d="M243.67 855c-4.64 0-8.4 3.76-8.4 8.4v11.2c0 4.64 3.76 8.4 8.4 8.4h58.93c4.64 0 8.4-3.76 8.4-8.4v-11.2c0-4.64-3.76-8.4-8.4-8.4z" fill="#fcd1a5"/><g><use xlink:href="#F" transform="matrix(1,0,0,1,245.26578073089698,857.8) translate(-0.007999999999995566 16.612000000000002)"/></g><path d="M964.33 504c-6.63 0-12 5.37-12 12v16c0 6.63 5.37 12 12 12h123.77c6.63 0 12-5.37 12-12v-16c0-6.63-5.37-12-12-12z" fill="#fcd1a5"/><g><use xlink:href="#G" transform="matrix(1,0,0,1,962.3255813953488,508) translate(4.839999999999996 23.573333333333334)"/><use xlink:href="#H" transform="matrix(1,0,0,1,962.3255813953488,508) translate(74.52000000000001 23.573333333333334)"/></g><path d="M86 1307c0-2.76 2.24-5 5-5h1102c2.76 0 5 2.24 5 5v46c0 2.76-2.24 5-5 5H91c-2.76 0-5-2.24-5-5z" stroke="#f78c20" stroke-width="2" fill="#fff"/><g><use xlink:href="#I" transform="matrix(1,0,0,1,91,1307) translate(525.395 28.112000000000002)"/></g><path d="M363.08 1019c0-2.76 2.23-5 5-5h244.9c2.77 0 5 2.24 5 5v230c0 2.76-2.23 5-5 5H368.1c-2.77 0-5-2.24-5-5z" stroke="#f78c20" stroke-width="2" fill="#fff"/><g><use xlink:href="#J" transform="matrix(1,0,0,1,373.0764119601329,1038) translate(39.51333333333332 103.57333333333332)"/><use xlink:href="#K" transform="matrix(1,0,0,1,373.0764119601329,1038) translate(127.59333333333333 103.57333333333332)"/></g><path d="M653.08 1019c0-2.76 2.24-5 5-5h244.9c2.77 0 5 2.24 5 5v230c0 2.76-2.23 5-5 5H658.1c-2.76 0-5-2.24-5-5z" stroke="#f78c20" stroke-width="2" fill="#fff"/><g><use xlink:href="#L" transform="matrix(1,0,0,1,663.0830564784053,1038) translate(56.806666666666665 103.57333333333332)"/></g><path d="M943.1 1019c0-2.76 2.23-5 5-5H1193c2.76 0 5 2.24 5 5v230c0 2.76-2.24 5-5 5H948.1c-2.77 0-5-2.24-5-5z" stroke="#f78c20" stroke-width="2" fill="#fff"/><g><use xlink:href="#M" transform="matrix(1,0,0,1,953.0897009966776,1038) translate(60.446666666666665 103.57333333333332)"/></g><path d="M89.7 1066c0-2.76 2.23-5 5-5h211.66c2.76 0 5 2.24 5 5v27.33c0 2.76-2.24 5-5 5H94.7c-2.77 0-5-2.24-5-5zM89.7 1103.33c0-2.76 2.23-5 5-5h211.66c2.76 0 5 2.24 5 5v27.34c0 2.76-2.24 5-5 5H94.7c-2.77 0-5-2.24-5-5zM89.7 1140.67c0-2.76 2.23-5 5-5h211.66c2.76 0 5 2.24 5 5V1168c0 2.76-2.24 5-5 5H94.7c-2.77 0-5-2.24-5-5z" fill="none"/><g><use xlink:href="#N" transform="matrix(1,0,0,1,89.69435215946842,1061) translate(0 24.112000000000002)"/><use xlink:href="#O" transform="matrix(1,0,0,1,89.69435215946842,1061) translate(42.01199999999999 24.112000000000002)"/><use xlink:href="#k" transform="matrix(1,0,0,1,89.69435215946842,1061) translate(74.01599999999999 24.112000000000002)"/></g><g><use xlink:href="#N" transform="matrix(1,0,0,1,89.69435215946842,1098.3333333333333) translate(0 24.112000000000002)"/><use xlink:href="#O" transform="matrix(1,0,0,1,89.69435215946842,1098.3333333333333) translate(42.01199999999999 24.112000000000002)"/><use xlink:href="#u" transform="matrix(1,0,0,1,89.69435215946842,1098.3333333333333) translate(74.01599999999999 24.112000000000002)"/></g><g><use xlink:href="#N" transform="matrix(1,0,0,1,89.69435215946842,1135.6666666666667) translate(0 24.112000000000002)"/><use xlink:href="#O" transform="matrix(1,0,0,1,89.69435215946842,1135.6666666666667) translate(42.01199999999999 24.112000000000002)"/><use xlink:href="#v" transform="matrix(1,0,0,1,89.69435215946842,1135.6666666666667) translate(74.01599999999999 24.112000000000002)"/></g><path d="M89.7 1019c0-2.76 2.23-5 5-5h211.66c2.76 0 5 2.24 5 5v18c0 2.76-2.24 5-5 5H94.7c-2.77 0-5-2.24-5-5z" fill="none"/><g><use xlink:href="#P" transform="matrix(1,0,0,1,89.69435215946844,1014) translate(0 14.112)"/></g><defs><path fill="#3d4752" d="M677-266C655-76 555 18 377 18 163 18 48-143 48-356s112-391 333-391c160 0 252 84 281 244h-95c-23-111-83-162-197-162-141 0-229 121-229 308 0 182 92 293 237 293 123 0 181-64 203-202h96" id="Q"/><path fill="#3d4752" d="M510-258c0 172-90 273-237 273C124 15 36-86 36-262s89-277 236-277c151 0 238 100 238 281zm-87-1c0-130-56-203-150-203-93 0-150 74-150 200 0 127 57 200 150 200 92 0 150-74 150-197" id="R"/><path fill="#3d4752" d="M760 0h-83v-361c0-66-35-105-96-105-68 0-124 61-124 137V0h-83v-361c0-67-35-105-97-105-68 0-123 61-123 137V0H71v-524h76v74c45-63 91-89 161-89 68 0 110 24 141 80 49-59 91-80 161-80 98 0 150 52 150 146V0" id="S"/><path fill="#3d4752" d="M523-257c0 167-89 272-224 272-68 0-117-24-161-78v281H55v-742h76v79c39-62 96-94 167-94 139 0 225 106 225 282zm-87-2c0-125-60-202-152-202-88 0-146 80-146 203S196-63 284-63c91 0 152-77 152-196" id="T"/><path fill="#3d4752" d="M535-2c-69 24-126 0-143-60-46 49-111 77-178 77C108 15 42-41 42-136c0-64 31-111 92-136 32-13 50-16 168-32 77-11 87-22 87-80 0-50-42-78-117-78-78 0-116 29-123 93H65c5-121 83-170 210-170 129 0 197 50 197 143v292c-2 32 28 47 63 39v63zM389-181v-78c-28 13-46 17-134 29-89 13-126 37-126 92 0 57 38 80 103 80 81 0 157-48 157-123" id="U"/><path fill="#3d4752" d="M487 0h-83v-363c0-63-42-103-108-103-85 0-143 70-143 177V0H70v-524h77v88c46-73 96-103 174-103 101 0 166 56 166 143V0" id="V"/><path fill="#3d4752" d="M478-524L245 110c-36 94-104 129-191 95v-75c56 13 91 7 111-45l32-83L20-524h89l134 408 145-408h90" id="W"/><g id="b"><use transform="matrix(0.05333333333333334,0,0,0.05333333333333334,0,0)" xlink:href="#Q"/><use transform="matrix(0.05333333333333334,0,0,0.05333333333333334,38.50666666666667,0)" xlink:href="#R"/><use transform="matrix(0.05333333333333334,0,0,0.05333333333333334,68.16,0)" xlink:href="#S"/><use transform="matrix(0.05333333333333334,0,0,0.05333333333333334,112.85333333333331,0)" xlink:href="#T"/><use transform="matrix(0.05333333333333334,0,0,0.05333333333333334,142.50666666666666,0)" xlink:href="#U"/><use transform="matrix(0.05333333333333334,0,0,0.05333333333333334,172.16,0)" xlink:href="#V"/><use transform="matrix(0.05333333333333334,0,0,0.05333333333333334,200.74666666666667,0)" xlink:href="#W"/></g><path fill="#3d4752" d="M646 0H541L164-591V0H76v-729h101l381 596v-596h88V0" id="X"/><path fill="#3d4752" d="M513-238H127c2 120 67 176 154 176 67 0 114-28 137-97h84C481-53 398 15 278 15 131 15 40-87 40-259s94-280 240-280c156 0 245 109 233 301zm-90-68c5-85-61-156-144-156-84 0-143 63-150 156h294" id="Y"/><g id="c"><use transform="matrix(0.05333333333333334,0,0,0.05333333333333334,0,0)" xlink:href="#X"/><use transform="matrix(0.05333333333333334,0,0,0.05333333333333334,38.24,0)" xlink:href="#U"/><use transform="matrix(0.05333333333333334,0,0,0.05333333333333334,67.89333333333335,0)" xlink:href="#S"/><use transform="matrix(0.05333333333333334,0,0,0.05333333333333334,112.32000000000004,0)" xlink:href="#Y"/></g><path fill="#3d4752" d="M459-147c0 101-84 162-216 162C106 15 38-39 34-160h88c11 80 53 98 128 98 73 0 122-29 122-78 0-63-103-74-159-88C89-260 47-297 47-379c0-97 79-160 201-160 121 0 189 58 190 161h-88c-2-55-38-84-105-84-68 0-111 31-111 79 0 37 29 59 97 75l80 19c104 25 148 64 148 142" id="Z"/><path fill="#3d4752" d="M321-451c-129 2-168 61-168 179V0H70v-524h76v95c59-88 90-119 175-107v85" id="aa"/><path fill="#3d4752" d="M477-180C467-60 388 15 263 15 121 15 31-88 31-257c0-174 92-282 233-282 117 0 197 63 207 191h-84c-10-73-54-114-124-114-91 0-145 74-145 205 0 124 55 195 147 195 71 0 114-34 128-118h84" id="ab"/><path fill="#3d4752" d="M486 0h-83v-363c0-69-49-103-108-103-86 0-142 70-142 177V0H70v-729h83v277c49-64 94-87 168-87 102 0 165 55 165 143V0" id="ac"/><g id="d"><use transform="matrix(0.018,0,0,0.018,0,0)" xlink:href="#Z"/><use transform="matrix(0.018,0,0,0.018,9,0)" xlink:href="#Y"/><use transform="matrix(0.018,0,0,0.018,19.008,0)" xlink:href="#U"/><use transform="matrix(0.018,0,0,0.018,29.016,0)" xlink:href="#aa"/><use transform="matrix(0.018,0,0,0.018,34.92,0)" xlink:href="#ab"/><use transform="matrix(0.018,0,0,0.018,43.92,0)" xlink:href="#ac"/></g><path fill="#3d4752" d="M579 0H80v-729h150v604h349V0" id="ad"/><path fill="#3d4752" d="M569-266C569-93 466 9 302 9 136 9 35-92 35-270c0-177 101-279 266-279 169 0 268 100 268 283zm-140-2c0-106-50-168-127-168-76 0-127 63-127 166s51 166 127 166c75 0 127-63 127-164" id="ae"/><path fill="#3d4752" d="M370-406c-99-18-167 21-167 119V0H63v-540h140v106c34-78 89-121 167-114v142" id="af"/><path fill="#3d4752" d="M272-549c164-1 260 122 252 316H162c4 105 46 135 112 135 51 0 95-15 107-54h138C488-46 390 9 269 9 116 9 22-90 22-263c0-181 95-286 250-286zm107 223c-7-77-49-116-109-116-62 0-97 41-106 116h215" id="ag"/><path fill="#3d4752" d="M824 0H684v-360c0-43-29-70-76-70-60 0-96 40-96 106V0H372v-360c0-43-29-70-76-70-60 0-96 40-96 106V0H60v-540h139v67c46-55 86-76 148-76 67 0 121 29 147 80 42-56 90-80 158-80 108 0 172 62 172 167V0" id="ah"/><g id="e"><use transform="matrix(0.018,0,0,0.018,0,0)" xlink:href="#ad"/><use transform="matrix(0.018,0,0,0.018,10.998,0)" xlink:href="#ae"/><use transform="matrix(0.018,0,0,0.018,21.996,0)" xlink:href="#af"/><use transform="matrix(0.018,0,0,0.018,29.087999999999997,0)" xlink:href="#ag"/><use transform="matrix(0.018,0,0,0.018,39.096,0)" xlink:href="#ah"/></g><path fill="#3d4752" d="M213 0H63v-729h150V0" id="ai"/><path fill="#3d4752" d="M574-270C574-106 478 9 348 9c-68 0-116-21-150-81v290H58v-758h140v80c34-60 82-89 150-89 141 0 226 119 226 279zm-140 2c0-103-47-164-118-164-70 0-118 61-118 162s48 162 118 162c69 0 118-62 118-160" id="aj"/><path fill="#3d4752" d="M520-167C520-51 439 8 284 9 120 9 33-53 29-171h137c12 58 46 70 110 70 98 0 147-55 57-83l-167-52C66-267 48-303 48-369c0-111 85-180 222-180 145 0 233 69 235 183H370c-1-49-34-73-101-73-49 0-81 20-81 50 0 22 10 31 49 42l177 51c71 21 106 67 106 129" id="ak"/><path fill="#3d4752" d="M541 0H401v-71C361-18 312 9 239 9 124 9 58-59 58-178v-362h140v333c0 65 30 97 90 97 68 0 113-42 113-106v-324h140V0" id="al"/><g id="f"><use transform="matrix(0.018,0,0,0.018,0,0)" xlink:href="#ai"/><use transform="matrix(0.018,0,0,0.018,5.004,0)" xlink:href="#aj"/><use transform="matrix(0.018,0,0,0.018,16.002,0)" xlink:href="#ak"/><use transform="matrix(0.018,0,0,0.018,26.009999999999998,0)" xlink:href="#al"/><use transform="matrix(0.018,0,0,0.018,37.007999999999996,0)" xlink:href="#ah"/></g><path fill="#3d4752" d="M362-729c234-10 319 156 319 364C681-155 594 0 362 0H77v-729h285zm169 365c0-161-56-240-169-240H227v479h135c113 0 169-79 169-239" id="am"/><path fill="#3d4752" d="M207 0H67v-729h140V0" id="an"/><g id="g"><use transform="matrix(0.018,0,0,0.018,0,0)" xlink:href="#am"/><use transform="matrix(0.018,0,0,0.018,12.995999999999999,0)" xlink:href="#ae"/><use transform="matrix(0.018,0,0,0.018,23.994,0)" xlink:href="#an"/><use transform="matrix(0.018,0,0,0.018,28.997999999999998,0)" xlink:href="#ae"/><use transform="matrix(0.018,0,0,0.018,39.995999999999995,0)" xlink:href="#af"/></g><path fill="#3d4752" d="M685-249C676-82 555 12 374 12 171 12 44-130 44-364c0-236 128-377 334-377 164 0 291 91 304 259H539c-22-94-75-131-156-131-118 0-189 90-189 251 0 159 68 248 184 248 93 0 152-42 161-135h146" id="ao"/><path fill="#3d4752" d="M546 0H406v-333c0-64-30-97-90-97-68 0-113 42-113 106V0H63v-540h140v78c40-60 89-87 162-87 115 0 181 68 181 187V0" id="ap"/><path fill="#3d4752" d="M301 0c-25 1-50 4-81 4C128 4 83-31 83-116v-320H14v-93h69v-145h140v145h78v93h-78v282c-5 64 29 63 78 56V0" id="aq"/><path fill="#3d4752" d="M524 0H372c-13-16-16-40-16-68C307-17 252 9 192 9 102 9 28-41 28-146c0-119 94-156 215-173 70-10 112-6 112-63 0-36-27-54-81-54-69 0-92 18-99 74H40c9-125 85-187 231-187s221 56 221 166v300c0 28 7 43 32 66V0zM244-104c79 1 117-58 111-151-15 11-75 19-107 26-58 11-80 26-80 67 0 40 29 58 76 58" id="ar"/><path fill="#3d4752" d="M522-187C509-72 418 9 287 9 127 9 34-88 34-266c0-184 94-283 255-283 135 0 223 79 233 211H388c-16-71-43-98-100-98-88 0-114 71-114 170 0 105 43 162 114 162 54 0 82-27 100-83h134" id="as"/><g id="h"><use transform="matrix(0.018,0,0,0.018,0,0)" xlink:href="#ao"/><use transform="matrix(0.018,0,0,0.018,12.995999999999999,0)" xlink:href="#ae"/><use transform="matrix(0.018,0,0,0.018,23.994,0)" xlink:href="#ap"/><use transform="matrix(0.018,0,0,0.018,34.992,0)" xlink:href="#aq"/><use transform="matrix(0.018,0,0,0.018,41.07599999999999,0)" xlink:href="#ar"/><use transform="matrix(0.018,0,0,0.018,51.084,0)" xlink:href="#as"/><use transform="matrix(0.018,0,0,0.018,61.092,0)" xlink:href="#aq"/></g><path fill="#3d4752" d="M703 0H549l-48-147H228L179 0H26l259-729h166zM460-272l-95-285-95 285h190" id="at"/><path fill="#3d4752" d="M575-263C575-100 477 9 348 9c-68 0-115-25-149-71V0H59v-729h140v259c34-54 82-79 149-79 142 0 227 133 227 286zm-140-6c0-100-49-163-118-163-70 0-118 62-118 160 0 103 47 164 118 164 69 0 118-63 118-161" id="au"/><g id="i"><use transform="matrix(0.018,0,0,0.018,0,0)" xlink:href="#at"/><use transform="matrix(0.018,0,0,0.018,12.995999999999999,0)" xlink:href="#au"/><use transform="matrix(0.018,0,0,0.018,23.994,0)" xlink:href="#ae"/><use transform="matrix(0.018,0,0,0.018,34.992,0)" xlink:href="#al"/><use transform="matrix(0.018,0,0,0.018,45.989999999999995,0)" xlink:href="#aq"/></g><path fill="#3d4752" d="M621-200C621-70 521 18 336 18 164 18 48-65 48-237h88c0 104 68 173 206 173 126 0 186-47 186-127 0-115-213-135-315-166-95-29-143-81-143-170 0-132 99-220 259-220 168 0 267 83 267 226h-88c0-95-66-148-182-148-98 0-163 55-163 129 0 56 32 85 120 108l183 49c99 27 155 93 155 183" id="av"/><path fill="#3d4752" d="M254 0C173 20 85 2 85-76v-380H14v-68h71v-144h83v144h86v68h-86v343c-10 55 46 50 86 43V0" id="aw"/><path fill="#3d4752" d="M153 0H70v-524h83V0zm11-603H60v-104h104v104" id="ax"/><g id="j"><use transform="matrix(0.018,0,0,0.018,0,0)" xlink:href="#av"/><use transform="matrix(0.018,0,0,0.018,12.005999999999998,0)" xlink:href="#Y"/><use transform="matrix(0.018,0,0,0.018,22.013999999999996,0)" xlink:href="#ab"/><use transform="matrix(0.018,0,0,0.018,31.014,0)" xlink:href="#aw"/><use transform="matrix(0.018,0,0,0.018,36.017999999999994,0)" xlink:href="#ax"/><use transform="matrix(0.018,0,0,0.018,40.013999999999996,0)" xlink:href="#R"/><use transform="matrix(0.018,0,0,0.018,50.02199999999999,0)" xlink:href="#V"/></g><path fill="#3d4752" d="M347 0h-88v-505H102v-63c136-17 156-32 187-141h58V0" id="ay"/><use transform="matrix(0.018,0,0,0.018,0,0)" xlink:href="#ay" id="k"/><path fill="#3d4752" d="M300-343c0 67-57 123-125 123-69 0-125-56-125-125s56-125 125-125c70 0 125 56 125 127" id="az"/><use transform="matrix(0.018,0,0,0.018,0,0)" xlink:href="#az" id="l"/><g id="m"><use transform="matrix(0.018,0,0,0.018,0,0)" xlink:href="#Q"/><use transform="matrix(0.018,0,0,0.018,12.995999999999999,0)" xlink:href="#ac"/><use transform="matrix(0.018,0,0,0.018,23.003999999999998,0)" xlink:href="#R"/><use transform="matrix(0.018,0,0,0.018,33.012,0)" xlink:href="#ax"/><use transform="matrix(0.018,0,0,0.018,37.008,0)" xlink:href="#ab"/><use transform="matrix(0.018,0,0,0.018,46.008,0)" xlink:href="#Y"/></g><path fill="#3d4752" d="M653 0H549l-75-219H193L116 0H17l260-729h120zM448-297L336-629 216-297h232" id="aA"/><use transform="matrix(0.018,0,0,0.018,0,0)" xlink:href="#aA" id="n"/><use transform="matrix(0.018,0,0,0.018,0,0)" xlink:href="#az" id="o"/><path fill="#3d4752" d="M623-208C623-88 539 0 408 0H79v-729h296c138 0 216 79 216 185 0 74-35 128-101 159 93 36 133 89 133 177zM498-531c0-74-43-116-146-116H172v232h180c103 0 146-42 146-116zm32 324c0-71-43-126-131-126H172v251h227c88 0 131-55 131-125" id="aB"/><use transform="matrix(0.018,0,0,0.018,0,0)" xlink:href="#aB" id="p"/><use transform="matrix(0.018,0,0,0.018,0,0)" xlink:href="#Q" id="q"/><path fill="#3d4752" d="M667-365C667-138 554 0 370 0H89v-729h281c185 0 297 138 297 364zm-93 1c0-186-76-283-220-283H182v565h172c144 0 220-98 220-282" id="aC"/><use transform="matrix(0.018,0,0,0.018,0,0)" xlink:href="#aC" id="r"/><path fill="#3d4752" d="M613 0H90v-729h505v82H183v233h397v82H183v250h430V0" id="aD"/><use transform="matrix(0.018,0,0,0.018,0,0)" xlink:href="#aD" id="s"/><path fill="#3d4752" d="M579-647H183v233h348v82H183V0H90v-729h489v82" id="aE"/><use transform="matrix(0.018,0,0,0.018,0,0)" xlink:href="#aE" id="t"/><path fill="#3d4752" d="M511-501c0 87-51 161-150 214l-100 54c-87 51-119 88-128 146h373V0H34c8-156 51-224 199-307 72-40 188-97 188-192 0-76-60-133-140-133-87 0-136 50-143 169H50c5-172 89-246 234-246 134 0 227 88 227 208" id="aF"/><use transform="matrix(0.018,0,0,0.018,0,0)" xlink:href="#aF" id="u"/><path fill="#3d4752" d="M506-206c0 134-94 221-240 221C121 15 43-56 32-214h88c6 103 53 151 149 151 92 0 147-53 147-142 0-95-78-135-195-125v-74c141 0 174-31 174-107 0-75-47-121-125-121-90 0-133 47-135 152H47c3-151 79-229 222-229 135 0 216 73 216 195 0 71-33 117-99 143 85 29 120 79 120 165" id="aG"/><use transform="matrix(0.018,0,0,0.018,0,0)" xlink:href="#aG" id="v"/><path fill="#3d4752" d="M520-170H415V0h-88v-170H28v-93l322-446h65v460h105v79zm-193-79v-310L105-249h222" id="aH"/><use transform="matrix(0.018,0,0,0.018,0,0)" xlink:href="#aH" id="w"/><path fill="#3d4752" d="M513-235C513-85 413 15 270 15 144 15 64-41 35-182h88c21 80 68 119 145 119 96 0 155-58 155-160 0-105-60-166-155-166-55 0-89 17-130 66H57l53-371h366v87H181l-28 183c41-30 81-43 131-43 136 0 229 92 229 232" id="aI"/><use transform="matrix(0.018,0,0,0.018,0,0)" xlink:href="#aI" id="x"/><path fill="#3d4752" d="M151 0H68v-729h83V0" id="aJ"/><g id="y"><use transform="matrix(0.04000000000000001,0,0,0.04000000000000001,0,0)" xlink:href="#av"/><use transform="matrix(0.04000000000000001,0,0,0.04000000000000001,26.680000000000007,0)" xlink:href="#Y"/><use transform="matrix(0.04000000000000001,0,0,0.04000000000000001,48.920000000000016,0)" xlink:href="#U"/><use transform="matrix(0.04000000000000001,0,0,0.04000000000000001,71.16000000000003,0)" xlink:href="#Z"/><use transform="matrix(0.04000000000000001,0,0,0.04000000000000001,91.16000000000001,0)" xlink:href="#R"/><use transform="matrix(0.04000000000000001,0,0,0.04000000000000001,113.40000000000003,0)" xlink:href="#V"/><use transform="matrix(0.04000000000000001,0,0,0.04000000000000001,135.64000000000004,0)" xlink:href="#U"/><use transform="matrix(0.04000000000000001,0,0,0.04000000000000001,157.88000000000005,0)" xlink:href="#aJ"/></g><path fill="#3d4752" d="M193 0h-93v-729h93V0" id="aK"/><g id="z"><use transform="matrix(0.04000000000000001,0,0,0.04000000000000001,0,0)" xlink:href="#aK"/><use transform="matrix(0.04000000000000001,0,0,0.04000000000000001,11.120000000000003,0)" xlink:href="#aw"/><use transform="matrix(0.04000000000000001,0,0,0.04000000000000001,21.640000000000008,0)" xlink:href="#Y"/><use transform="matrix(0.04000000000000001,0,0,0.04000000000000001,43.88000000000001,0)" xlink:href="#S"/></g><g id="A"><use transform="matrix(0.04000000000000001,0,0,0.04000000000000001,0,0)" xlink:href="#av"/><use transform="matrix(0.04000000000000001,0,0,0.04000000000000001,26.680000000000007,0)" xlink:href="#U"/><use transform="matrix(0.04000000000000001,0,0,0.04000000000000001,48.920000000000016,0)" xlink:href="#aJ"/><use transform="matrix(0.04000000000000001,0,0,0.04000000000000001,57.80000000000002,0)" xlink:href="#Y"/><use transform="matrix(0.04000000000000001,0,0,0.04000000000000001,80.04000000000002,0)" xlink:href="#Z"/></g><path fill="#3d4752" d="M457 0H31v-75l313-376H52v-73h391v74L132-73h325V0" id="aL"/><path fill="#3d4752" d="M489-86c0 231-70 304-234 304-123 0-200-59-209-158h85c10 64 61 88 127 88 108 0 163-76 154-227-55 66-101 94-167 94C122 15 29-92 29-257c0-170 90-282 223-282 67 0 118 29 160 91v-76h77v438zm-85-173c0-127-53-203-143-203-89 0-145 74-145 200 0 127 55 200 146 200 88 0 142-72 142-197" id="aM"/><g id="B"><use transform="matrix(0.02666666666666667,0,0,0.02666666666666667,0,0)" xlink:href="#aA"/><use transform="matrix(0.02666666666666667,0,0,0.02666666666666667,17.78666666666667,0)" xlink:href="#S"/><use transform="matrix(0.02666666666666667,0,0,0.02666666666666667,40,0)" xlink:href="#U"/><use transform="matrix(0.02666666666666667,0,0,0.02666666666666667,54.82666666666667,0)" xlink:href="#aL"/><use transform="matrix(0.02666666666666667,0,0,0.02666666666666667,68.16,0)" xlink:href="#ax"/><use transform="matrix(0.02666666666666667,0,0,0.02666666666666667,74.08,0)" xlink:href="#V"/><use transform="matrix(0.02666666666666667,0,0,0.02666666666666667,88.90666666666667,0)" xlink:href="#aM"/></g><g id="C"><use transform="matrix(0.02666666666666667,0,0,0.02666666666666667,0,0)" xlink:href="#Y"/><use transform="matrix(0.02666666666666667,0,0,0.02666666666666667,14.826666666666668,0)" xlink:href="#S"/><use transform="matrix(0.02666666666666667,0,0,0.02666666666666667,37.040000000000006,0)" xlink:href="#U"/><use transform="matrix(0.02666666666666667,0,0,0.02666666666666667,51.866666666666674,0)" xlink:href="#ax"/><use transform="matrix(0.02666666666666667,0,0,0.02666666666666667,57.78666666666667,0)" xlink:href="#aJ"/></g><path fill="#3d4752" d="M258-456h-87V0H88v-456H18v-68h70v-89c-3-92 75-135 170-114v69c-52-6-87 6-87 52v82h87v68" id="aN"/><path fill="#3d4752" d="M181-391l-22 223h-39L98-391v-338h83v338zm0 391H97v-104h84V0" id="aO"/><g id="D"><use transform="matrix(0.02666666666666667,0,0,0.02666666666666667,0,0)" xlink:href="#R"/><use transform="matrix(0.02666666666666667,0,0,0.02666666666666667,14.826666666666668,0)" xlink:href="#aN"/><use transform="matrix(0.02666666666666667,0,0,0.02666666666666667,22.773333333333333,0)" xlink:href="#aN"/><use transform="matrix(0.02666666666666667,0,0,0.02666666666666667,29.78666666666667,0)" xlink:href="#Y"/><use transform="matrix(0.02666666666666667,0,0,0.02666666666666667,44.61333333333334,0)" xlink:href="#aa"/><use transform="matrix(0.02666666666666667,0,0,0.02666666666666667,53.49333333333334,0)" xlink:href="#aO"/></g><g id="E"><use transform="matrix(0.018,0,0,0.018,0,0)" xlink:href="#aD"/><use transform="matrix(0.018,0,0,0.018,12.005999999999998,0)" xlink:href="#S"/><use transform="matrix(0.018,0,0,0.018,26.999999999999996,0)" xlink:href="#U"/><use transform="matrix(0.018,0,0,0.018,37.007999999999996,0)" xlink:href="#ax"/><use transform="matrix(0.018,0,0,0.018,41.004,0)" xlink:href="#aJ"/></g><path fill="#3d4752" d="M482 0h-75v-81c-49 69-98 96-175 96C130 15 65-41 65-128v-396h83v363c0 63 42 103 108 103 87 0 143-70 143-177v-289h83V0" id="aP"/><path fill="#3d4752" d="M523-268c0 170-90 283-228 283-73 0-126-29-166-90V0H54v-729h83v276c39-59 90-86 162-86 138 0 224 101 224 271zm-87 5c0-117-60-198-153-198-88 0-146 76-146 199 0 119 58 199 146 199 91 0 153-81 153-200" id="aQ"/><g id="F"><use transform="matrix(0.018,0,0,0.018,0,0)" xlink:href="#av"/><use transform="matrix(0.018,0,0,0.018,12.005999999999998,0)" xlink:href="#aP"/><use transform="matrix(0.018,0,0,0.018,22.013999999999996,0)" xlink:href="#aQ"/><use transform="matrix(0.018,0,0,0.018,32.02199999999999,0)" xlink:href="#S"/><use transform="matrix(0.018,0,0,0.018,47.01599999999999,0)" xlink:href="#ax"/><use transform="matrix(0.018,0,0,0.018,51.01199999999999,0)" xlink:href="#aw"/></g><g id="G"><use transform="matrix(0.02666666666666667,0,0,0.02666666666666667,0,0)" xlink:href="#av"/><use transform="matrix(0.02666666666666667,0,0,0.02666666666666667,17.78666666666667,0)" xlink:href="#ac"/><use transform="matrix(0.02666666666666667,0,0,0.02666666666666667,32.61333333333334,0)" xlink:href="#R"/><use transform="matrix(0.02666666666666667,0,0,0.02666666666666667,47.440000000000005,0)" xlink:href="#T"/></g><path fill="#3d4752" d="M708-524L554 0h-95L353-411 252 0h-94L6-524h92l107 408 100-408h102l103 408 104-408h94" id="aR"/><g id="H"><use transform="matrix(0.02666666666666667,0,0,0.02666666666666667,0,0)" xlink:href="#V"/><use transform="matrix(0.02666666666666667,0,0,0.02666666666666667,14.826666666666668,0)" xlink:href="#R"/><use transform="matrix(0.02666666666666667,0,0,0.02666666666666667,29.38666666666667,0)" xlink:href="#aR"/></g><g id="I"><use transform="matrix(0.018,0,0,0.018,0,0)" xlink:href="#aE"/><use transform="matrix(0.018,0,0,0.018,10.638,0)" xlink:href="#R"/><use transform="matrix(0.018,0,0,0.018,20.646,0)" xlink:href="#R"/><use transform="matrix(0.018,0,0,0.018,30.474,0)" xlink:href="#aw"/><use transform="matrix(0.018,0,0,0.018,35.208,0)" xlink:href="#Y"/><use transform="matrix(0.018,0,0,0.018,45.215999999999994,0)" xlink:href="#aa"/></g><path fill="#3d4752" d="M929-729L744 0H642L474-599 311 0H209L22-729h104l137 592 162-592h100l166 592 134-592h104" id="aS"/><path fill="#3d4752" d="M142-598l-27 134H75L48-598v-111h94v111" id="aT"/><g id="J"><use transform="matrix(0.02666666666666667,0,0,0.02666666666666667,0,0)" xlink:href="#aS"/><use transform="matrix(0.02666666666666667,0,0,0.02666666666666667,25.173333333333336,0)" xlink:href="#ac"/><use transform="matrix(0.02666666666666667,0,0,0.02666666666666667,40,0)" xlink:href="#U"/><use transform="matrix(0.02666666666666667,0,0,0.02666666666666667,54.82666666666667,0)" xlink:href="#aw"/><use transform="matrix(0.02666666666666667,0,0,0.02666666666666667,62.24,0)" xlink:href="#aT"/><use transform="matrix(0.02666666666666667,0,0,0.02666666666666667,67.33333333333334,0)" xlink:href="#Z"/></g><path fill="#3d4752" d="M502-549c0 66-26 110-100 179-86 81-80 76-79 171h-90c0-62-3-103 28-142 18-22 17-23 76-76 53-47 75-86 75-132 0-68-51-114-128-114-89 0-129 47-129 156H70c0-154 75-234 219-234 130 0 213 75 213 192zM323 0h-90v-104h90V0" id="aU"/><g id="K"><use transform="matrix(0.02666666666666667,0,0,0.02666666666666667,0,0)" xlink:href="#X"/><use transform="matrix(0.02666666666666667,0,0,0.02666666666666667,19.253333333333334,0)" xlink:href="#Y"/><use transform="matrix(0.02666666666666667,0,0,0.02666666666666667,33.81333333333333,0)" xlink:href="#aR"/><use transform="matrix(0.02666666666666667,0,0,0.02666666666666667,53.06666666666666,0)" xlink:href="#aU"/></g><g id="L"><use transform="matrix(0.02666666666666667,0,0,0.02666666666666667,0,0)" xlink:href="#Q"/><use transform="matrix(0.02666666666666667,0,0,0.02666666666666667,19.253333333333334,0)" xlink:href="#aJ"/><use transform="matrix(0.02666666666666667,0,0,0.02666666666666667,25.173333333333336,0)" xlink:href="#Y"/><use transform="matrix(0.02666666666666667,0,0,0.02666666666666667,40,0)" xlink:href="#U"/><use transform="matrix(0.02666666666666667,0,0,0.02666666666666667,54.82666666666667,0)" xlink:href="#aa"/><use transform="matrix(0.02666666666666667,0,0,0.02666666666666667,63.57333333333334,0)" xlink:href="#U"/><use transform="matrix(0.02666666666666667,0,0,0.02666666666666667,78.4,0)" xlink:href="#V"/><use transform="matrix(0.02666666666666667,0,0,0.02666666666666667,93.22666666666667,0)" xlink:href="#ab"/><use transform="matrix(0.02666666666666667,0,0,0.02666666666666667,106.56,0)" xlink:href="#Y"/></g><g id="M"><use transform="matrix(0.02666666666666667,0,0,0.02666666666666667,0,0)" xlink:href="#av"/><use transform="matrix(0.02666666666666667,0,0,0.02666666666666667,17.78666666666667,0)" xlink:href="#T"/><use transform="matrix(0.02666666666666667,0,0,0.02666666666666667,32.61333333333334,0)" xlink:href="#Y"/><use transform="matrix(0.02666666666666667,0,0,0.02666666666666667,47.440000000000005,0)" xlink:href="#ab"/><use transform="matrix(0.02666666666666667,0,0,0.02666666666666667,60.77333333333334,0)" xlink:href="#ax"/><use transform="matrix(0.02666666666666667,0,0,0.02666666666666667,66.69333333333334,0)" xlink:href="#U"/><use transform="matrix(0.02666666666666667,0,0,0.02666666666666667,81.52000000000001,0)" xlink:href="#aJ"/><use transform="matrix(0.02666666666666667,0,0,0.02666666666666667,87.44000000000001,0)" xlink:href="#ax"/><use transform="matrix(0.02666666666666667,0,0,0.02666666666666667,93.36000000000001,0)" xlink:href="#aw"/><use transform="matrix(0.02666666666666667,0,0,0.02666666666666667,100.77333333333334,0)" xlink:href="#W"/></g><path fill="#3d4752" d="M644 0h-93v-332H176V0H83v-729h93v315h375v-315h93V0" id="aV"/><g id="N"><use transform="matrix(0.018,0,0,0.018,0,0)" xlink:href="#aV"/><use transform="matrix(0.018,0,0,0.018,12.995999999999999,0)" xlink:href="#Y"/><use transform="matrix(0.018,0,0,0.018,23.003999999999998,0)" xlink:href="#aJ"/><use transform="matrix(0.018,0,0,0.018,26.999999999999996,0)" xlink:href="#T"/></g><path fill="#3d4752" d="M502 0H399L222-284l-81 80V0H58v-729h83v427l222-222h107L288-343" id="aW"/><g id="O"><use transform="matrix(0.018,0,0,0.018,0,0)" xlink:href="#aJ"/><use transform="matrix(0.018,0,0,0.018,3.9959999999999996,0)" xlink:href="#ax"/><use transform="matrix(0.018,0,0,0.018,7.991999999999999,0)" xlink:href="#V"/><use transform="matrix(0.018,0,0,0.018,18,0)" xlink:href="#aW"/></g><path fill="#3d4752" d="M657 0H507v-331H218V0H68v-729h150v273h289v-273h150V0" id="aX"/><g id="P"><use transform="matrix(0.018,0,0,0.018,0,0)" xlink:href="#aX"/><use transform="matrix(0.018,0,0,0.018,12.995999999999999,0)" xlink:href="#ag"/><use transform="matrix(0.018,0,0,0.018,23.003999999999998,0)" xlink:href="#an"/><use transform="matrix(0.018,0,0,0.018,28.007999999999996,0)" xlink:href="#aj"/></g></defs></g></svg>